# xmcd CD database file
#
# Track frame offsets:
#	300
#	21600
#	34430
#	54607
#	70431
#	89102
#	104254
#	124578
#	140383
#
# Disc length: 2099 seconds
#
# Revision: 0
# Processed by: cddbd v1.5.2PL0 Copyright (c) Steve Scherf et al.
# Submitted via: CDex 1.70
#
DISCID=8c082f09
DTITLE=Cardets -  Right In Time
DYEAR=2011
DGENRE=Country
TTITLE0=Right In Time
TTITLE1=Nothin' At All
TTITLE2=Borderline
TTITLE3=Travellin'
TTITLE4=Railway Station Blues
TTITLE5=Turn The Radio On
TTITLE6=Helpless (Without You)
TTITLE7=Funky Goose
TTITLE8=Time Marches On
EXTD=YEAR: 2011
EXTT0=
EXTT1=
EXTT2=
EXTT3=
EXTT4=
EXTT5=
EXTT6=
EXTT7=
EXTT8=
PLAYORDER=
